<svg width="1362" height="73" viewBox="0 0 1362 73" fill="none" xmlns="http://www.w3.org/2000/svg">
<rect x="37" y="51" width="1289" height="12" fill="white"/>
<circle cx="38" cy="57" r="16" fill="white"/>
<circle cx="462" cy="57" r="16" fill="white"/>
<circle cx="902" cy="57" r="16" fill="white"/>
<circle cx="1326" cy="57" r="16" fill="white"/>
<path d="M2.492 21.312C4.796 19.392 6.632 17.796 8 16.524C9.368 15.228 10.508 13.884 11.42 12.492C12.332 11.1 12.788 9.732 12.788 8.388C12.788 7.164 12.5 6.204 11.924 5.508C11.348 4.812 10.46 4.464 9.26 4.464C8.06 4.464 7.136 4.872 6.488 5.688C5.84 6.48 5.504 7.572 5.48 8.964H0.584C0.68 6.084 1.532 3.9 3.14 2.412C4.772 0.923998 6.836 0.179998 9.332 0.179998C12.068 0.179998 14.168 0.911998 15.632 2.376C17.096 3.816 17.828 5.724 17.828 8.1C17.828 9.972 17.324 11.76 16.316 13.464C15.308 15.168 14.156 16.656 12.86 17.928C11.564 19.176 9.872 20.688 7.784 22.464H18.404V26.64H0.62V22.896L2.492 21.312ZM21.5799 13.536C21.5799 9.384 22.3239 6.132 23.8119 3.78C25.3239 1.428 27.8199 0.251999 31.2999 0.251999C34.7799 0.251999 37.2639 1.428 38.7519 3.78C40.2639 6.132 41.0199 9.384 41.0199 13.536C41.0199 17.712 40.2639 20.988 38.7519 23.364C37.2639 25.74 34.7799 26.928 31.2999 26.928C27.8199 26.928 25.3239 25.74 23.8119 23.364C22.3239 20.988 21.5799 17.712 21.5799 13.536ZM36.0519 13.536C36.0519 11.76 35.9319 10.272 35.6919 9.072C35.4759 7.848 35.0199 6.852 34.3239 6.084C33.6519 5.316 32.6439 4.932 31.2999 4.932C29.9559 4.932 28.9359 5.316 28.2399 6.084C27.5679 6.852 27.1119 7.848 26.8719 9.072C26.6559 10.272 26.5479 11.76 26.5479 13.536C26.5479 15.36 26.6559 16.896 26.8719 18.144C27.0879 19.368 27.5439 20.364 28.2399 21.132C28.9359 21.876 29.9559 22.248 31.2999 22.248C32.6439 22.248 33.6639 21.876 34.3599 21.132C35.0559 20.364 35.5119 19.368 35.7279 18.144C35.9439 16.896 36.0519 15.36 36.0519 13.536ZM44.2413 5.4V0.755999H52.9173V27H47.7333V5.4H44.2413ZM62.2883 13.104C59.8883 11.856 58.6883 9.924 58.6883 7.308C58.6883 6.012 59.0123 4.836 59.6603 3.78C60.3323 2.7 61.3283 1.848 62.6483 1.224C63.9923 0.575999 65.6243 0.251999 67.5443 0.251999C69.4643 0.251999 71.0843 0.575999 72.4043 1.224C73.7483 1.848 74.7443 2.7 75.3923 3.78C76.0643 4.836 76.4003 6.012 76.4003 7.308C76.4003 8.628 76.0763 9.792 75.4283 10.8C74.7803 11.784 73.9163 12.552 72.8363 13.104C74.1563 13.68 75.1883 14.52 75.9323 15.624C76.6763 16.728 77.0483 18.036 77.0483 19.548C77.0483 21.18 76.6283 22.608 75.7883 23.832C74.9723 25.032 73.8443 25.956 72.4043 26.604C70.9643 27.252 69.3443 27.576 67.5443 27.576C65.7443 27.576 64.1243 27.252 62.6843 26.604C61.2683 25.956 60.1403 25.032 59.3003 23.832C58.4843 22.608 58.0763 21.18 58.0763 19.548C58.0763 18.036 58.4483 16.728 59.1923 15.624C59.9363 14.496 60.9683 13.656 62.2883 13.104ZM71.5043 8.028C71.5043 6.852 71.1443 5.94 70.4243 5.292C69.7283 4.644 68.7683 4.32 67.5443 4.32C66.3443 4.32 65.3843 4.644 64.6643 5.292C63.9683 5.94 63.6203 6.864 63.6203 8.064C63.6203 9.144 63.9803 10.008 64.7003 10.656C65.4443 11.304 66.3923 11.628 67.5443 11.628C68.6963 11.628 69.6443 11.304 70.3883 10.656C71.1323 9.984 71.5043 9.108 71.5043 8.028ZM67.5443 15.3C66.1763 15.3 65.0603 15.648 64.1963 16.344C63.3563 17.04 62.9363 18.036 62.9363 19.332C62.9363 20.532 63.3443 21.516 64.1603 22.284C65.0003 23.028 66.1283 23.4 67.5443 23.4C68.9603 23.4 70.0763 23.016 70.8923 22.248C71.7083 21.48 72.1163 20.508 72.1163 19.332C72.1163 18.06 71.6963 17.076 70.8563 16.38C70.0163 15.66 68.9123 15.3 67.5443 15.3Z" fill="white"/>
<path d="M424.492 21.312C426.796 19.392 428.632 17.796 430 16.524C431.368 15.228 432.508 13.884 433.42 12.492C434.332 11.1 434.788 9.732 434.788 8.388C434.788 7.164 434.5 6.204 433.924 5.508C433.348 4.812 432.46 4.464 431.26 4.464C430.06 4.464 429.136 4.872 428.488 5.688C427.84 6.48 427.504 7.572 427.48 8.964H422.584C422.68 6.084 423.532 3.9 425.14 2.412C426.772 0.923998 428.836 0.179998 431.332 0.179998C434.068 0.179998 436.168 0.911998 437.632 2.376C439.096 3.816 439.828 5.724 439.828 8.1C439.828 9.972 439.324 11.76 438.316 13.464C437.308 15.168 436.156 16.656 434.86 17.928C433.564 19.176 431.872 20.688 429.784 22.464H440.404V26.64H422.62V22.896L424.492 21.312ZM443.58 13.536C443.58 9.384 444.324 6.132 445.812 3.78C447.324 1.428 449.82 0.251999 453.3 0.251999C456.78 0.251999 459.264 1.428 460.752 3.78C462.264 6.132 463.02 9.384 463.02 13.536C463.02 17.712 462.264 20.988 460.752 23.364C459.264 25.74 456.78 26.928 453.3 26.928C449.82 26.928 447.324 25.74 445.812 23.364C444.324 20.988 443.58 17.712 443.58 13.536ZM458.052 13.536C458.052 11.76 457.932 10.272 457.692 9.072C457.476 7.848 457.02 6.852 456.324 6.084C455.652 5.316 454.644 4.932 453.3 4.932C451.956 4.932 450.936 5.316 450.24 6.084C449.568 6.852 449.112 7.848 448.872 9.072C448.656 10.272 448.548 11.76 448.548 13.536C448.548 15.36 448.656 16.896 448.872 18.144C449.088 19.368 449.544 20.364 450.24 21.132C450.936 21.876 451.956 22.248 453.3 22.248C454.644 22.248 455.664 21.876 456.36 21.132C457.056 20.364 457.512 19.368 457.728 18.144C457.944 16.896 458.052 15.36 458.052 13.536ZM466.241 5.4V0.755999H474.917V27H469.733V5.4H466.241ZM485.728 19.62C485.92 20.676 486.352 21.492 487.024 22.068C487.72 22.62 488.644 22.896 489.796 22.896C491.284 22.896 492.364 22.284 493.036 21.06C493.708 19.812 494.044 17.724 494.044 14.796C493.492 15.564 492.712 16.164 491.704 16.596C490.72 17.028 489.652 17.244 488.5 17.244C486.964 17.244 485.572 16.932 484.324 16.308C483.1 15.66 482.128 14.712 481.408 13.464C480.688 12.192 480.328 10.656 480.328 8.856C480.328 6.192 481.12 4.08 482.704 2.52C484.288 0.935999 486.448 0.143998 489.184 0.143998C492.592 0.143998 494.992 1.236 496.384 3.42C497.8 5.604 498.508 8.892 498.508 13.284C498.508 16.404 498.232 18.96 497.68 20.952C497.152 22.944 496.228 24.456 494.908 25.488C493.612 26.52 491.836 27.036 489.58 27.036C487.804 27.036 486.292 26.7 485.044 26.028C483.796 25.332 482.836 24.432 482.164 23.328C481.516 22.2 481.144 20.964 481.048 19.62H485.728ZM489.544 13.14C490.792 13.14 491.776 12.756 492.496 11.988C493.216 11.22 493.576 10.188 493.576 8.892C493.576 7.476 493.192 6.384 492.424 5.616C491.68 4.824 490.66 4.428 489.364 4.428C488.068 4.428 487.036 4.836 486.268 5.652C485.524 6.444 485.152 7.5 485.152 8.82C485.152 10.092 485.512 11.136 486.232 11.952C486.976 12.744 488.08 13.14 489.544 13.14Z" fill="white"/>
<path d="M861.492 21.312C863.796 19.392 865.632 17.796 867 16.524C868.368 15.228 869.508 13.884 870.42 12.492C871.332 11.1 871.788 9.732 871.788 8.388C871.788 7.164 871.5 6.204 870.924 5.508C870.348 4.812 869.46 4.464 868.26 4.464C867.06 4.464 866.136 4.872 865.488 5.688C864.84 6.48 864.504 7.572 864.48 8.964H859.584C859.68 6.084 860.532 3.9 862.14 2.412C863.772 0.923998 865.836 0.179998 868.332 0.179998C871.068 0.179998 873.168 0.911998 874.632 2.376C876.096 3.816 876.828 5.724 876.828 8.1C876.828 9.972 876.324 11.76 875.316 13.464C874.308 15.168 873.156 16.656 871.86 17.928C870.564 19.176 868.872 20.688 866.784 22.464H877.404V26.64H859.62V22.896L861.492 21.312ZM880.58 13.536C880.58 9.384 881.324 6.132 882.812 3.78C884.324 1.428 886.82 0.251999 890.3 0.251999C893.78 0.251999 896.264 1.428 897.752 3.78C899.264 6.132 900.02 9.384 900.02 13.536C900.02 17.712 899.264 20.988 897.752 23.364C896.264 25.74 893.78 26.928 890.3 26.928C886.82 26.928 884.324 25.74 882.812 23.364C881.324 20.988 880.58 17.712 880.58 13.536ZM895.052 13.536C895.052 11.76 894.932 10.272 894.692 9.072C894.476 7.848 894.02 6.852 893.324 6.084C892.652 5.316 891.644 4.932 890.3 4.932C888.956 4.932 887.936 5.316 887.24 6.084C886.568 6.852 886.112 7.848 885.872 9.072C885.656 10.272 885.548 11.76 885.548 13.536C885.548 15.36 885.656 16.896 885.872 18.144C886.088 19.368 886.544 20.364 887.24 21.132C887.936 21.876 888.956 22.248 890.3 22.248C891.644 22.248 892.664 21.876 893.36 21.132C894.056 20.364 894.512 19.368 894.728 18.144C894.944 16.896 895.052 15.36 895.052 13.536ZM905.437 21.312C907.741 19.392 909.577 17.796 910.945 16.524C912.313 15.228 913.453 13.884 914.365 12.492C915.277 11.1 915.733 9.732 915.733 8.388C915.733 7.164 915.445 6.204 914.869 5.508C914.293 4.812 913.405 4.464 912.205 4.464C911.005 4.464 910.081 4.872 909.433 5.688C908.785 6.48 908.449 7.572 908.425 8.964H903.529C903.625 6.084 904.477 3.9 906.085 2.412C907.717 0.923998 909.781 0.179998 912.277 0.179998C915.013 0.179998 917.113 0.911998 918.577 2.376C920.041 3.816 920.773 5.724 920.773 8.1C920.773 9.972 920.269 11.76 919.261 13.464C918.253 15.168 917.101 16.656 915.805 17.928C914.509 19.176 912.817 20.688 910.729 22.464H921.349V26.64H903.565V22.896L905.437 21.312ZM924.525 13.536C924.525 9.384 925.269 6.132 926.757 3.78C928.269 1.428 930.765 0.251999 934.245 0.251999C937.725 0.251999 940.209 1.428 941.697 3.78C943.209 6.132 943.965 9.384 943.965 13.536C943.965 17.712 943.209 20.988 941.697 23.364C940.209 25.74 937.725 26.928 934.245 26.928C930.765 26.928 928.269 25.74 926.757 23.364C925.269 20.988 924.525 17.712 924.525 13.536ZM938.997 13.536C938.997 11.76 938.877 10.272 938.637 9.072C938.421 7.848 937.965 6.852 937.269 6.084C936.597 5.316 935.589 4.932 934.245 4.932C932.901 4.932 931.881 5.316 931.185 6.084C930.513 6.852 930.057 7.848 929.817 9.072C929.601 10.272 929.493 11.76 929.493 13.536C929.493 15.36 929.601 16.896 929.817 18.144C930.033 19.368 930.489 20.364 931.185 21.132C931.881 21.876 932.901 22.248 934.245 22.248C935.589 22.248 936.609 21.876 937.305 21.132C938.001 20.364 938.457 19.368 938.673 18.144C938.889 16.896 938.997 15.36 938.997 13.536Z" fill="white"/>
<path d="M1290.49 21.312C1292.8 19.392 1294.63 17.796 1296 16.524C1297.37 15.228 1298.51 13.884 1299.42 12.492C1300.33 11.1 1300.79 9.732 1300.79 8.388C1300.79 7.164 1300.5 6.204 1299.92 5.508C1299.35 4.812 1298.46 4.464 1297.26 4.464C1296.06 4.464 1295.14 4.872 1294.49 5.688C1293.84 6.48 1293.5 7.572 1293.48 8.964H1288.58C1288.68 6.084 1289.53 3.9 1291.14 2.412C1292.77 0.923998 1294.84 0.179998 1297.33 0.179998C1300.07 0.179998 1302.17 0.911998 1303.63 2.376C1305.1 3.816 1305.83 5.724 1305.83 8.1C1305.83 9.972 1305.32 11.76 1304.32 13.464C1303.31 15.168 1302.16 16.656 1300.86 17.928C1299.56 19.176 1297.87 20.688 1295.78 22.464H1306.4V26.64H1288.62V22.896L1290.49 21.312ZM1309.58 13.536C1309.58 9.384 1310.32 6.132 1311.81 3.78C1313.32 1.428 1315.82 0.251999 1319.3 0.251999C1322.78 0.251999 1325.26 1.428 1326.75 3.78C1328.26 6.132 1329.02 9.384 1329.02 13.536C1329.02 17.712 1328.26 20.988 1326.75 23.364C1325.26 25.74 1322.78 26.928 1319.3 26.928C1315.82 26.928 1313.32 25.74 1311.81 23.364C1310.32 20.988 1309.58 17.712 1309.58 13.536ZM1324.05 13.536C1324.05 11.76 1323.93 10.272 1323.69 9.072C1323.48 7.848 1323.02 6.852 1322.32 6.084C1321.65 5.316 1320.64 4.932 1319.3 4.932C1317.96 4.932 1316.94 5.316 1316.24 6.084C1315.57 6.852 1315.11 7.848 1314.87 9.072C1314.66 10.272 1314.55 11.76 1314.55 13.536C1314.55 15.36 1314.66 16.896 1314.87 18.144C1315.09 19.368 1315.54 20.364 1316.24 21.132C1316.94 21.876 1317.96 22.248 1319.3 22.248C1320.64 22.248 1321.66 21.876 1322.36 21.132C1323.06 20.364 1323.51 19.368 1323.73 18.144C1323.94 16.896 1324.05 15.36 1324.05 13.536ZM1334.44 21.312C1336.74 19.392 1338.58 17.796 1339.95 16.524C1341.31 15.228 1342.45 13.884 1343.37 12.492C1344.28 11.1 1344.73 9.732 1344.73 8.388C1344.73 7.164 1344.45 6.204 1343.87 5.508C1343.29 4.812 1342.41 4.464 1341.21 4.464C1340.01 4.464 1339.08 4.872 1338.43 5.688C1337.79 6.48 1337.45 7.572 1337.43 8.964H1332.53C1332.63 6.084 1333.48 3.9 1335.09 2.412C1336.72 0.923998 1338.78 0.179998 1341.28 0.179998C1344.01 0.179998 1346.11 0.911998 1347.58 2.376C1349.04 3.816 1349.77 5.724 1349.77 8.1C1349.77 9.972 1349.27 11.76 1348.26 13.464C1347.25 15.168 1346.1 16.656 1344.81 17.928C1343.51 19.176 1341.82 20.688 1339.73 22.464H1350.35V26.64H1332.57V22.896L1334.44 21.312ZM1352.91 5.4V0.755999H1361.59V27H1356.41V5.4H1352.91Z" fill="white"/>
</svg>
